<mxfile host="app.diagrams.net" modified="2022-11-22T03:20:57.022Z" agent="5.0 (Windows NT 10.0; Win64; x64) AppleWebKit/537.36 (KHTML, like Gecko) Chrome/100.0.4896.60 Safari/537.36" etag="QYh4ot5CZkRAd6yq2u6j" version="20.5.3" type="github">
  <diagram id="kgpKYQtTHZ0yAKxKKP6v" name="Page-1">
    <mxGraphModel dx="1422" dy="762" grid="1" gridSize="10" guides="1" tooltips="1" connect="1" arrows="1" fold="1" page="1" pageScale="1" pageWidth="1200" pageHeight="1920" math="0" shadow="0">
      <root>
        <mxCell id="0" />
        <mxCell id="1" parent="0" />
        <mxCell id="tQQ8MLweX-jRAEpyJud6-17" value="seller-api" style="shape=umlLifeline;perimeter=lifelinePerimeter;container=1;collapsible=0;recursiveResize=0;rounded=0;shadow=0;strokeWidth=1;" vertex="1" parent="1">
          <mxGeometry x="117" y="80" width="100" height="1400" as="geometry" />
        </mxCell>
        <mxCell id="tQQ8MLweX-jRAEpyJud6-19" value="/sign-up" style="verticalAlign=bottom;startArrow=oval;endArrow=block;startSize=8;shadow=0;strokeWidth=1;" edge="1" parent="tQQ8MLweX-jRAEpyJud6-17" source="tQQ8MLweX-jRAEpyJud6-33">
          <mxGeometry x="0.1667" y="10" relative="1" as="geometry">
            <mxPoint x="-16" y="70" as="sourcePoint" />
            <mxPoint x="44" y="70" as="targetPoint" />
            <mxPoint as="offset" />
          </mxGeometry>
        </mxCell>
        <mxCell id="tQQ8MLweX-jRAEpyJud6-110" value="" style="html=1;points=[];perimeter=orthogonalPerimeter;" vertex="1" parent="tQQ8MLweX-jRAEpyJud6-17">
          <mxGeometry x="45" y="1296" width="10" height="48" as="geometry" />
        </mxCell>
        <mxCell id="tQQ8MLweX-jRAEpyJud6-111" value="gen_token() 生成账户token" style="edgeStyle=orthogonalEdgeStyle;html=1;align=left;spacingLeft=2;endArrow=block;rounded=0;entryX=1;entryY=0;" edge="1" target="tQQ8MLweX-jRAEpyJud6-110" parent="tQQ8MLweX-jRAEpyJud6-17">
          <mxGeometry relative="1" as="geometry">
            <mxPoint x="53" y="1276" as="sourcePoint" />
            <Array as="points">
              <mxPoint x="75" y="1276" />
            </Array>
          </mxGeometry>
        </mxCell>
        <mxCell id="tQQ8MLweX-jRAEpyJud6-39" value="Loop&amp;nbsp;" style="shape=umlFrame;whiteSpace=wrap;html=1;fontStyle=1" vertex="1" parent="1">
          <mxGeometry x="129" y="170" width="861" height="90" as="geometry" />
        </mxCell>
        <mxCell id="tQQ8MLweX-jRAEpyJud6-21" value="seller-service" style="shape=umlLifeline;perimeter=lifelinePerimeter;container=1;collapsible=0;recursiveResize=0;rounded=0;shadow=0;strokeWidth=1;" vertex="1" parent="1">
          <mxGeometry x="270" y="80" width="90" height="1400" as="geometry" />
        </mxCell>
        <mxCell id="tQQ8MLweX-jRAEpyJud6-33" value="" style="shape=umlLifeline;participant=umlActor;perimeter=lifelinePerimeter;whiteSpace=wrap;html=1;container=1;collapsible=0;recursiveResize=0;verticalAlign=top;spacingTop=36;outlineConnect=0;" vertex="1" parent="1">
          <mxGeometry x="40" y="90" width="20" height="1390" as="geometry" />
        </mxCell>
        <mxCell id="tQQ8MLweX-jRAEpyJud6-47" value="S3" style="shape=umlLifeline;participant=umlEntity;perimeter=lifelinePerimeter;whiteSpace=wrap;html=1;container=1;collapsible=0;recursiveResize=0;verticalAlign=top;spacingTop=36;outlineConnect=0;" vertex="1" parent="1">
          <mxGeometry x="933" y="80" width="40" height="210" as="geometry" />
        </mxCell>
        <mxCell id="tQQ8MLweX-jRAEpyJud6-113" value="" style="html=1;points=[];perimeter=orthogonalPerimeter;" vertex="1" parent="tQQ8MLweX-jRAEpyJud6-47">
          <mxGeometry x="15" y="115" width="10" height="50" as="geometry" />
        </mxCell>
        <mxCell id="tQQ8MLweX-jRAEpyJud6-114" value="&lt;span style=&quot;font-size: 12px;&quot;&gt;confirm_temp_file() 确认图片资源&lt;/span&gt;" style="html=1;verticalAlign=bottom;endArrow=block;entryX=0.1;entryY=0.34;rounded=0;entryDx=0;entryDy=0;entryPerimeter=0;" edge="1" parent="tQQ8MLweX-jRAEpyJud6-47">
          <mxGeometry relative="1" as="geometry">
            <mxPoint x="-763" y="128" as="sourcePoint" />
            <mxPoint x="16" y="128" as="targetPoint" />
          </mxGeometry>
        </mxCell>
        <mxCell id="tQQ8MLweX-jRAEpyJud6-57" value="common-service" style="shape=umlLifeline;perimeter=lifelinePerimeter;container=1;collapsible=0;recursiveResize=0;rounded=0;shadow=0;strokeWidth=1;" vertex="1" parent="1">
          <mxGeometry x="410" y="80" width="120" height="530" as="geometry" />
        </mxCell>
        <mxCell id="tQQ8MLweX-jRAEpyJud6-72" value="" style="html=1;points=[];perimeter=orthogonalPerimeter;" vertex="1" parent="tQQ8MLweX-jRAEpyJud6-57">
          <mxGeometry x="55" y="209" width="10" height="161" as="geometry" />
        </mxCell>
        <mxCell id="tQQ8MLweX-jRAEpyJud6-91" value="" style="html=1;points=[];perimeter=orthogonalPerimeter;" vertex="1" parent="tQQ8MLweX-jRAEpyJud6-57">
          <mxGeometry x="55" y="400" width="10" height="80" as="geometry" />
        </mxCell>
        <mxCell id="tQQ8MLweX-jRAEpyJud6-73" value="&lt;span style=&quot;font-size: 12px;&quot;&gt;getAreaById() 获取省、市信息&lt;/span&gt;" style="html=1;verticalAlign=bottom;endArrow=block;entryX=0;entryY=0;rounded=0;" edge="1" target="tQQ8MLweX-jRAEpyJud6-72" parent="1">
          <mxGeometry relative="1" as="geometry">
            <mxPoint x="166.5" y="289" as="sourcePoint" />
          </mxGeometry>
        </mxCell>
        <mxCell id="tQQ8MLweX-jRAEpyJud6-74" value="return &amp;lt;&amp;lt;common_struct.Areas&amp;gt;&amp;gt;" style="html=1;verticalAlign=bottom;endArrow=open;dashed=1;endSize=8;exitX=0;exitY=0.95;rounded=0;" edge="1" source="tQQ8MLweX-jRAEpyJud6-72" parent="1">
          <mxGeometry relative="1" as="geometry">
            <mxPoint x="160" y="440" as="targetPoint" />
          </mxGeometry>
        </mxCell>
        <mxCell id="tQQ8MLweX-jRAEpyJud6-92" value="&lt;span style=&quot;font-size: 12px;&quot;&gt;get_region()&amp;nbsp; 获取国家信息&lt;/span&gt;" style="html=1;verticalAlign=bottom;endArrow=block;entryX=0;entryY=0;rounded=0;" edge="1" parent="1" target="tQQ8MLweX-jRAEpyJud6-91">
          <mxGeometry relative="1" as="geometry">
            <mxPoint x="166.5" y="480" as="sourcePoint" />
          </mxGeometry>
        </mxCell>
        <mxCell id="tQQ8MLweX-jRAEpyJud6-93" value="return &amp;lt;&amp;lt;common_struct.Region&amp;gt;&amp;gt;" style="html=1;verticalAlign=bottom;endArrow=open;dashed=1;endSize=8;exitX=0;exitY=0.95;rounded=0;" edge="1" parent="1">
          <mxGeometry relative="1" as="geometry">
            <mxPoint x="160" y="560" as="targetPoint" />
            <mxPoint x="465" y="560" as="sourcePoint" />
          </mxGeometry>
        </mxCell>
        <mxCell id="tQQ8MLweX-jRAEpyJud6-95" value="" style="html=1;points=[];perimeter=orthogonalPerimeter;" vertex="1" parent="1">
          <mxGeometry x="310" y="618" width="10" height="462" as="geometry" />
        </mxCell>
        <mxCell id="tQQ8MLweX-jRAEpyJud6-96" value="&lt;span style=&quot;font-size: 12px;&quot;&gt;create_seller() 创建卖家账号&lt;/span&gt;" style="html=1;verticalAlign=bottom;endArrow=block;entryX=0;entryY=0;rounded=0;" edge="1" parent="1" target="tQQ8MLweX-jRAEpyJud6-95">
          <mxGeometry relative="1" as="geometry">
            <mxPoint x="166.5" y="618" as="sourcePoint" />
          </mxGeometry>
        </mxCell>
        <mxCell id="tQQ8MLweX-jRAEpyJud6-97" value="return" style="html=1;verticalAlign=bottom;endArrow=open;dashed=1;endSize=8;exitX=0;exitY=0.95;rounded=0;entryX=0.49;entryY=0.648;entryDx=0;entryDy=0;entryPerimeter=0;" edge="1" parent="1">
          <mxGeometry relative="1" as="geometry">
            <mxPoint x="166" y="1165.92" as="targetPoint" />
            <mxPoint x="310" y="1165.8499999999997" as="sourcePoint" />
          </mxGeometry>
        </mxCell>
        <mxCell id="tQQ8MLweX-jRAEpyJud6-99" value="" style="html=1;points=[];perimeter=orthogonalPerimeter;" vertex="1" parent="1">
          <mxGeometry x="310" y="1231" width="10" height="40" as="geometry" />
        </mxCell>
        <mxCell id="tQQ8MLweX-jRAEpyJud6-100" value="&lt;span style=&quot;font-size: 12px;&quot;&gt;verify_login_account()&lt;/span&gt;" style="html=1;verticalAlign=bottom;endArrow=block;entryX=0;entryY=0;rounded=0;" edge="1" parent="1" target="tQQ8MLweX-jRAEpyJud6-99">
          <mxGeometry relative="1" as="geometry">
            <mxPoint x="166.5" y="1231" as="sourcePoint" />
          </mxGeometry>
        </mxCell>
        <mxCell id="tQQ8MLweX-jRAEpyJud6-101" value="return" style="html=1;verticalAlign=bottom;endArrow=open;dashed=1;endSize=8;exitX=0;exitY=0.95;rounded=0;" edge="1" parent="1" source="tQQ8MLweX-jRAEpyJud6-99">
          <mxGeometry relative="1" as="geometry">
            <mxPoint x="170" y="1269" as="targetPoint" />
          </mxGeometry>
        </mxCell>
        <mxCell id="tQQ8MLweX-jRAEpyJud6-104" value="cube-service" style="shape=umlLifeline;perimeter=lifelinePerimeter;container=1;collapsible=0;recursiveResize=0;rounded=0;shadow=0;strokeWidth=1;" vertex="1" parent="1">
          <mxGeometry x="799" y="80" width="90" height="1290" as="geometry" />
        </mxCell>
        <mxCell id="tQQ8MLweX-jRAEpyJud6-107" value="" style="html=1;points=[];perimeter=orthogonalPerimeter;" vertex="1" parent="tQQ8MLweX-jRAEpyJud6-104">
          <mxGeometry x="40" y="1214" width="10" height="40" as="geometry" />
        </mxCell>
        <mxCell id="tQQ8MLweX-jRAEpyJud6-108" value="create_app_id() 创建开发者信息" style="html=1;verticalAlign=bottom;endArrow=block;entryX=0;entryY=0;rounded=0;" edge="1" parent="1" target="tQQ8MLweX-jRAEpyJud6-107">
          <mxGeometry relative="1" as="geometry">
            <mxPoint x="166.5" y="1294" as="sourcePoint" />
          </mxGeometry>
        </mxCell>
        <mxCell id="tQQ8MLweX-jRAEpyJud6-109" value="return" style="html=1;verticalAlign=bottom;endArrow=open;dashed=1;endSize=8;exitX=0;exitY=0.95;rounded=0;" edge="1" parent="1" source="tQQ8MLweX-jRAEpyJud6-107">
          <mxGeometry relative="1" as="geometry">
            <mxPoint x="170" y="1332" as="targetPoint" />
          </mxGeometry>
        </mxCell>
        <mxCell id="tQQ8MLweX-jRAEpyJud6-112" value="return 卖家账号信息、账号token" style="html=1;verticalAlign=bottom;endArrow=open;dashed=1;endSize=8;rounded=0;" edge="1" parent="1">
          <mxGeometry x="-0.095" y="-10" relative="1" as="geometry">
            <mxPoint x="160" y="1423" as="sourcePoint" />
            <mxPoint x="49.5" y="1423" as="targetPoint" />
            <mxPoint as="offset" />
          </mxGeometry>
        </mxCell>
        <mxCell id="tQQ8MLweX-jRAEpyJud6-115" value="return 图片地址" style="html=1;verticalAlign=bottom;endArrow=open;dashed=1;endSize=8;exitX=0;exitY=0.95;rounded=0;" edge="1" source="tQQ8MLweX-jRAEpyJud6-113" parent="1">
          <mxGeometry relative="1" as="geometry">
            <mxPoint x="170" y="243" as="targetPoint" />
          </mxGeometry>
        </mxCell>
        <mxCell id="tQQ8MLweX-jRAEpyJud6-117" value="mongodb" style="shape=umlLifeline;perimeter=lifelinePerimeter;whiteSpace=wrap;html=1;container=1;collapsible=0;recursiveResize=0;outlineConnect=0;rounded=0;glass=0;sketch=0;" vertex="1" parent="1">
          <mxGeometry x="1041" y="80" width="166" height="690" as="geometry" />
        </mxCell>
        <mxCell id="tQQ8MLweX-jRAEpyJud6-119" value="" style="html=1;points=[];perimeter=orthogonalPerimeter;rounded=0;shadow=1;glass=0;sketch=0;" vertex="1" parent="tQQ8MLweX-jRAEpyJud6-117">
          <mxGeometry x="79" y="220" width="10" height="30" as="geometry" />
        </mxCell>
        <mxCell id="tQQ8MLweX-jRAEpyJud6-143" value="" style="html=1;points=[];perimeter=orthogonalPerimeter;rounded=0;shadow=1;glass=0;sketch=0;" vertex="1" parent="tQQ8MLweX-jRAEpyJud6-117">
          <mxGeometry x="78" y="300" width="10" height="40" as="geometry" />
        </mxCell>
        <mxCell id="tQQ8MLweX-jRAEpyJud6-146" value="" style="html=1;points=[];perimeter=orthogonalPerimeter;rounded=0;shadow=1;glass=0;sketch=0;" vertex="1" parent="tQQ8MLweX-jRAEpyJud6-117">
          <mxGeometry x="78" y="416" width="10" height="39" as="geometry" />
        </mxCell>
        <mxCell id="tQQ8MLweX-jRAEpyJud6-154" value="" style="html=1;points=[];perimeter=orthogonalPerimeter;rounded=0;shadow=1;glass=0;sketch=0;" vertex="1" parent="tQQ8MLweX-jRAEpyJud6-117">
          <mxGeometry x="78" y="597" width="10" height="40" as="geometry" />
        </mxCell>
        <mxCell id="tQQ8MLweX-jRAEpyJud6-122" value="&lt;b&gt;Loop [deep - 1 &amp;gt; 0]&lt;/b&gt;" style="shape=umlFrame;whiteSpace=wrap;html=1;rounded=0;shadow=1;glass=0;sketch=0;width=166;height=20;" vertex="1" parent="1">
          <mxGeometry x="430" y="352" width="740" height="80" as="geometry" />
        </mxCell>
        <mxCell id="tQQ8MLweX-jRAEpyJud6-120" value="common.db.Areas.find_one()" style="html=1;verticalAlign=bottom;endArrow=block;entryX=0;entryY=0;rounded=0;exitX=1.3;exitY=0.062;exitDx=0;exitDy=0;exitPerimeter=0;" edge="1" target="tQQ8MLweX-jRAEpyJud6-119" parent="1" source="tQQ8MLweX-jRAEpyJud6-72">
          <mxGeometry relative="1" as="geometry">
            <mxPoint x="772" y="300" as="sourcePoint" />
          </mxGeometry>
        </mxCell>
        <mxCell id="tQQ8MLweX-jRAEpyJud6-121" value="return 地区信息" style="html=1;verticalAlign=bottom;endArrow=open;dashed=1;endSize=8;exitX=0;exitY=0.95;rounded=0;" edge="1" source="tQQ8MLweX-jRAEpyJud6-119" parent="1" target="tQQ8MLweX-jRAEpyJud6-57">
          <mxGeometry x="-0.009" y="21" relative="1" as="geometry">
            <mxPoint x="772" y="376" as="targetPoint" />
            <mxPoint as="offset" />
          </mxGeometry>
        </mxCell>
        <mxCell id="tQQ8MLweX-jRAEpyJud6-133" value="&lt;b&gt;Break [&lt;span style=&quot;font-size: 11px; text-align: left; background-color: rgb(255, 255, 255);&quot;&gt;check_seller_account_is_registered() 为 true&lt;/span&gt;]&lt;/b&gt;" style="shape=umlFrame;whiteSpace=wrap;html=1;rounded=0;shadow=1;glass=0;sketch=0;width=420;height=25;" vertex="1" parent="1">
          <mxGeometry x="270" y="626.5" width="990" height="473.5" as="geometry" />
        </mxCell>
        <mxCell id="tQQ8MLweX-jRAEpyJud6-134" value="ids-service" style="shape=umlLifeline;perimeter=lifelinePerimeter;container=1;collapsible=0;recursiveResize=0;rounded=0;shadow=0;strokeWidth=1;" vertex="1" parent="1">
          <mxGeometry x="578" y="80" width="90" height="680" as="geometry" />
        </mxCell>
        <mxCell id="tQQ8MLweX-jRAEpyJud6-151" value="" style="html=1;points=[];perimeter=orthogonalPerimeter;rounded=0;shadow=1;glass=0;sketch=0;" vertex="1" parent="tQQ8MLweX-jRAEpyJud6-134">
          <mxGeometry x="40" y="592" width="10" height="48" as="geometry" />
        </mxCell>
        <mxCell id="tQQ8MLweX-jRAEpyJud6-144" value="common.db.Areas.find_one()" style="html=1;verticalAlign=bottom;endArrow=block;entryX=0;entryY=0;rounded=0;" edge="1" target="tQQ8MLweX-jRAEpyJud6-143" parent="1">
          <mxGeometry relative="1" as="geometry">
            <mxPoint x="480" y="380" as="sourcePoint" />
          </mxGeometry>
        </mxCell>
        <mxCell id="tQQ8MLweX-jRAEpyJud6-145" value="return 地区信息" style="html=1;verticalAlign=bottom;endArrow=open;dashed=1;endSize=8;exitX=0;exitY=0.95;rounded=0;" edge="1" source="tQQ8MLweX-jRAEpyJud6-143" parent="1">
          <mxGeometry relative="1" as="geometry">
            <mxPoint x="470" y="418" as="targetPoint" />
          </mxGeometry>
        </mxCell>
        <mxCell id="tQQ8MLweX-jRAEpyJud6-147" value="common.db.region.find_one()" style="html=1;verticalAlign=bottom;endArrow=block;entryX=0;entryY=0;rounded=0;" edge="1" parent="1">
          <mxGeometry relative="1" as="geometry">
            <mxPoint x="480" y="500" as="sourcePoint" />
            <mxPoint x="1119" y="498" as="targetPoint" />
          </mxGeometry>
        </mxCell>
        <mxCell id="tQQ8MLweX-jRAEpyJud6-148" value="return 国家信息" style="html=1;verticalAlign=bottom;endArrow=open;dashed=1;endSize=8;exitX=0;exitY=0.95;rounded=0;" edge="1" source="tQQ8MLweX-jRAEpyJud6-146" parent="1">
          <mxGeometry x="-0.0177" y="22" relative="1" as="geometry">
            <mxPoint x="469.5" y="533.05" as="targetPoint" />
            <mxPoint as="offset" />
          </mxGeometry>
        </mxCell>
        <mxCell id="tQQ8MLweX-jRAEpyJud6-152" value="getId() 获取 seller_id" style="html=1;verticalAlign=bottom;endArrow=block;entryX=0;entryY=0;rounded=0;exitX=0.075;exitY=0.372;exitDx=0;exitDy=0;exitPerimeter=0;" edge="1" target="tQQ8MLweX-jRAEpyJud6-151" parent="1">
          <mxGeometry relative="1" as="geometry">
            <mxPoint x="320.25" y="672.002" as="sourcePoint" />
          </mxGeometry>
        </mxCell>
        <mxCell id="tQQ8MLweX-jRAEpyJud6-153" value="return" style="html=1;verticalAlign=bottom;endArrow=open;dashed=1;endSize=8;exitX=0;exitY=0.95;rounded=0;" edge="1" source="tQQ8MLweX-jRAEpyJud6-151" parent="1">
          <mxGeometry relative="1" as="geometry">
            <mxPoint x="320" y="718" as="targetPoint" />
          </mxGeometry>
        </mxCell>
        <mxCell id="tQQ8MLweX-jRAEpyJud6-155" value="ids.db.ids.find_one_and_update()" style="html=1;verticalAlign=bottom;endArrow=block;rounded=0;exitX=1.1;exitY=0.271;exitDx=0;exitDy=0;exitPerimeter=0;" edge="1" target="tQQ8MLweX-jRAEpyJud6-154" parent="1" source="tQQ8MLweX-jRAEpyJud6-151">
          <mxGeometry relative="1" as="geometry">
            <mxPoint x="1049" y="637" as="sourcePoint" />
          </mxGeometry>
        </mxCell>
        <mxCell id="tQQ8MLweX-jRAEpyJud6-156" value="return&amp;nbsp;&amp;nbsp;+ 1 后的 seller_id" style="html=1;verticalAlign=bottom;endArrow=open;dashed=1;endSize=8;exitX=0;exitY=0.95;rounded=0;entryX=1;entryY=0.938;entryDx=0;entryDy=0;entryPerimeter=0;" edge="1" source="tQQ8MLweX-jRAEpyJud6-154" parent="1" target="tQQ8MLweX-jRAEpyJud6-151">
          <mxGeometry relative="1" as="geometry">
            <mxPoint x="745" y="715" as="targetPoint" />
          </mxGeometry>
        </mxCell>
      </root>
    </mxGraphModel>
  </diagram>
</mxfile>
